PathFileType	4	(X/Y/Z)	/Users/itak/Documents/Research/Walk-IL/dataset/trc/00003_00004.trc
DataRate	CameraRate	NumFrames	NumMarkers	Units	OrigDataRate	OrigDataStartFrame	OrigNumFrames
100.000000	100.000000	4	53	mm	100.000000	71	569
Frame#	Time	RPSI			LPSI			L3			STRN			T10			C7			CLAV			RBAK			LBAK			LSHO			LUPA			LAEL			LAOL			LWTS			LWPS			LFRA			LIFD			LHPS			LHTS			RSHO			RUPA			RAEL			RAOL			RWTS			RWPS			RFRA			RIFD			RHTS			RHPS			RBHD			LFHD			RFHD			LBHD			LHIP			RHIP			RASI			LASI			LKNE			LTHI			LANK			LTIP			LTOE			LMT1			LMT5			LHEE			RKNE			RTHI			RANK			RTIP			RTOE			RMT1			RMT5			RHEE			
		X1	Y1	Z1	X2	Y2	Z2	X3	Y3	Z3	X4	Y4	Z4	X5	Y5	Z5	X6	Y6	Z6	X7	Y7	Z7	X8	Y8	Z8	X9	Y9	Z9	X10	Y10	Z10	X11	Y11	Z11	X12	Y12	Z12	X13	Y13	Z13	X14	Y14	Z14	X15	Y15	Z15	X16	Y16	Z16	X17	Y17	Z17	X18	Y18	Z18	X19	Y19	Z19	X20	Y20	Z20	X21	Y21	Z21	X22	Y22	Z22	X23	Y23	Z23	X24	Y24	Z24	X25	Y25	Z25	X26	Y26	Z26	X27	Y27	Z27	X28	Y28	Z28	X29	Y29	Z29	X30	Y30	Z30	X31	Y31	Z31	X32	Y32	Z32	X33	Y33	Z33	X34	Y34	Z34	X35	Y35	Z35	X36	Y36	Z36	X37	Y37	Z37	X38	Y38	Z38	X39	Y39	Z39	X40	Y40	Z40	X41	Y41	Z41	X42	Y42	Z42	X43	Y43	Z43	X44	Y44	Z44	X45	Y45	Z45	X46	Y46	Z46	X47	Y47	Z47	X48	Y48	Z48	X49	Y49	Z49	X50	Y50	Z50	X51	Y51	Z51	X52	Y52	Z52	X53	Y53	Z53	

72	0.71	-1245.105712890625	1069.401123046875	-170.8649139404297	-1254.413208007812	1063.52001953125	-332.7867736816406	-1253.403198242188	1124.339477539062	-261.4154357910156	-1034.855102539062	1329.836669921875	-260.3296203613281	-1287.515014648438	1267.848999023438	-261.2525329589844	-1249.568969726562	1537.14208984375	-270.910888671875	-1083.382446289062	1453.875732421875	-264.7120971679688	-1292.13134765625	1397.664428710938	-191.62548828125	-1263.70703125	1495.31982421875	-368.5486145019531	-1160.62158203125	1507.839721679688	-441.6979064941406	-1184.87060546875	1382.22998046875	-520.6107788085938	-1179.437622070312	1163.537353515625	-542.8379516601562	-1237.976440429688	1150.638305664062	-454.4701232910156	-1086.84130859375	913.8514404296875	-481.3181762695312	-1161.948364257812	896.6278686523438	-525.5145874023438	-1163.020385742188	1047.970947265625	-546.6621704101562	-1048.826538085938	732.1835327148438	-461.9949340820312	-1125.925659179688	807.974365234375	-521.439697265625	-1060.964233398438	822.2815551757812	-491.9360656738281	-1172.983032226562	1528.908447265625	-95.74806976318359	-1183.027465820312	1455.981689453125	-23.20283508300781	-1203.091796875	1185.18310546875	-2.518593072891235	-1204.317749023438	1158.27587890625	-99.00727844238281	-1062.451782226562	931.7758178710938	-34.55319595336914	-1128.799072265625	914.3590698242188	28.57487869262695	-1186.1279296875	1110.390869140625	11.9576358795166	-1036.807861328125	745.4591674804688	-46.57427978515625	-1027.12255859375	822.4070434570312	-18.33800888061523	-1084.356079101562	815.6844482421875	28.10018157958984	-1218.224365234375	1727.41748046875	-309.4736328125	-1009.299499511719	1740.26904296875	-245.3524932861328	-1038.6201171875	1742.001831054688	-339.4744873046875	-1168.815551757812	1720.594360351562	-173.3955230712891	-1162.423461914062	963.8511352539062	-443.5170593261719	-1129.081665039062	964.5938110351562	-72.55771636962891	-1027.950073242188	997.2711791992188	-151.5317840576172	-1044.737548828125	1012.11865234375	-385.9324645996094	-1125.640869140625	518.511474609375	-398.9466247558594	-1145.449462890625	655.2718505859375	-433.6219787597656	-1226.11962890625	42.26220703125	-401.8563232421875	-1209.903198242188	289.5519409179688	-418.9282531738281	-1007.265869140625	41.18758010864258	-333.9222412109375	-1067.048950195312	49.71908569335938	-317.4808044433594	-1100.902099609375	39.87357711791992	-419.2801208496094	-1297.009521484375	48.82466888427734	-349.9336547851562	-1130.283569335938	527.7060546875	-118.1699295043945	-1105.249755859375	795.9169311523438	-74.98197937011719	-1248.036743164062	47.62386703491211	-135.7710571289062	-1158.422973632812	405.5169067382812	-117.0613555908203	-1015.742797851562	45.57648086547852	-171.1216430664062	-1077.66162109375	49.57796096801758	-204.3854675292969	-1099.111938476562	46.18416595458984	-109.4388122558594	-1304.282348632812	48.3973274230957	-182.57373046875	
73	0.72	-1244.931030273438	1069.4248046875	-170.8178558349609	-1254.210815429688	1063.488891601562	-332.7609558105469	-1253.203247070312	1124.338745117188	-261.3716735839844	-1034.568969726562	1329.759399414062	-260.2037963867188	-1287.200561523438	1267.8876953125	-261.1960144042969	-1249.242065429688	1537.138916015625	-270.9410095214844	-1082.979736328125	1453.866821289062	-264.6034240722656	-1291.796020507812	1397.727172851562	-191.5964202880859	-1263.331420898438	1495.39794921875	-368.6108093261719	-1160.267211914062	1507.822265625	-441.6820068359375	-1184.409912109375	1382.203247070312	-520.5562744140625	-1178.936889648438	1163.509521484375	-542.8370971679688	-1237.613159179688	1150.600463867188	-454.5116577148438	-1086.557983398438	913.7857666015625	-481.279296875	-1161.47021484375	896.5807495117188	-525.445556640625	-1162.645385742188	1047.91650390625	-546.61865234375	-1048.427856445312	732.1690673828125	-461.7936401367188	-1125.519165039062	807.92333984375	-521.3551635742188	-1060.607543945312	822.2901000976562	-491.7982177734375	-1172.777465820312	1528.890258789062	-95.73850250244141	-1182.796997070312	1455.987915039062	-23.13873481750488	-1202.9677734375	1185.173461914062	-2.529463529586792	-1204.077758789062	1158.287353515625	-98.98392486572266	-1062.334716796875	931.8007202148438	-34.56923675537109	-1128.642578125	914.3436889648438	28.53341484069824	-1185.991821289062	1110.375732421875	11.94443988800049	-1036.66796875	745.38671875	-46.65343475341797	-1026.930419921875	822.4186401367188	-18.33526229858398	-1084.257934570312	815.6864013671875	28.05615234375	-1217.293701171875	1727.5244140625	-310.420166015625	-1009.003295898438	1740.009887695312	-244.3578491210938	-1037.351928710938	1741.682739257812	-338.7480163574219	-1169.16357421875	1720.853637695312	-173.8853759765625	-1162.241455078125	963.8320922851562	-443.4872741699219	-1128.989135742188	964.59619140625	-72.51806640625	-1027.8857421875	997.2073974609375	-151.4254302978516	-1044.530517578125	1012.033203125	-385.8349304199219	-1125.61962890625	518.499755859375	-398.9378051757812	-1145.41015625	655.2702026367188	-433.581298828125	-1226.1494140625	42.23028182983398	-401.8783874511719	-1209.9150390625	289.5536193847656	-418.9179992675781	-1007.275329589844	41.19314193725586	-333.9307556152344	-1067.109985351562	49.71249771118164	-317.5126953125	-1100.90673828125	39.86220550537109	-419.2975463867188	-1297.013793945312	48.80068206787109	-349.9583740234375	-1130.203857421875	527.7117309570312	-118.1153335571289	-1105.22900390625	795.9125366210938	-74.85025787353516	-1248.012084960938	47.5980110168457	-135.7569580078125	-1158.334716796875	405.5209045410156	-117.0164566040039	-1015.745361328125	45.57767868041992	-171.1145324707031	-1077.664306640625	49.58424758911133	-204.3819427490234	-1099.12890625	46.16152572631836	-109.4242324829102	-1304.273681640625	48.40353012084961	-182.574462890625	
74	0.73	-1244.771240234375	1069.44873046875	-170.7715301513672	-1253.995239257812	1063.471313476562	-332.7451782226562	-1252.997436523438	1124.344482421875	-261.32568359375	-1034.2861328125	1329.667236328125	-260.0584716796875	-1286.887329101562	1267.9326171875	-261.1392517089844	-1248.910278320312	1537.1396484375	-270.9672546386719	-1082.580200195312	1453.864135742188	-264.4817810058594	-1291.471313476562	1397.792724609375	-191.5713653564453	-1262.894897460938	1495.46533203125	-368.6546630859375	-1159.88427734375	1507.808349609375	-441.6496887207031	-1183.91796875	1382.170776367188	-520.4911499023438	-1178.433349609375	1163.477294921875	-542.8280029296875	-1237.198120117188	1150.56396484375	-454.543212890625	-1086.227172851562	913.7203369140625	-481.1879272460938	-1160.982788085938	896.5386962890625	-525.3595581054688	-1162.239868164062	1047.860717773438	-546.5654296875	-1048.0283203125	732.162109375	-461.6244506835938	-1125.0947265625	807.8782348632812	-521.2442626953125	-1060.253173828125	822.2879028320312	-491.6489868164062	-1172.558959960938	1528.869018554688	-95.72514343261719	-1182.569213867188	1455.998413085938	-23.06463050842285	-1202.85498046875	1185.167724609375	-2.531247138977051	-1203.859619140625	1158.302490234375	-98.96070861816406	-1062.222045898438	931.8319091796875	-34.57224655151367	-1128.491333007812	914.3324584960938	28.49925231933594	-1185.868530273438	1110.361328125	11.94030952453613	-1036.546264648438	745.3265991210938	-46.70202255249023	-1026.7333984375	822.4364013671875	-18.31159019470215	-1084.165161132812	815.7000732421875	28.03066253662109	-1216.328247070312	1727.614135742188	-311.3568725585938	-1008.691284179688	1739.775268554688	-243.3375396728516	-1036.063110351562	1741.369140625	-337.9849853515625	-1169.493774414062	1721.111328125	-174.3808441162109	-1162.072631835938	963.8143920898438	-443.458984375	-1128.868041992188	964.582275390625	-72.49937438964844	-1027.838012695312	997.1358032226562	-151.3199920654297	-1044.332641601562	1011.939208984375	-385.7266235351562	-1125.594970703125	518.488037109375	-398.9413146972656	-1145.36572265625	655.26708984375	-433.5475769042969	-1226.188110351562	42.18959808349609	-401.90673828125	-1209.929809570312	289.554443359375	-418.9115600585938	-1007.286499023438	41.20006942749023	-333.9403076171875	-1067.165649414062	49.7080078125	-317.5460510253906	-1100.910888671875	39.85063552856445	-419.3168334960938	-1297.015625	48.77477264404297	-349.9897155761719	-1130.101684570312	527.71630859375	-118.0637054443359	-1105.211303710938	795.9085693359375	-74.72120666503906	-1247.98583984375	47.56927490234375	-135.7350616455078	-1158.232299804688	405.523681640625	-116.9701614379883	-1015.747497558594	45.5794792175293	-171.1080932617188	-1077.665405273438	49.59039688110352	-204.3793029785156	-1099.139892578125	46.1427001953125	-109.4133682250977	-1304.265014648438	48.41130065917969	-182.5790100097656	
75	0.74	-1244.6279296875	1069.4716796875	-170.7276458740234	-1253.771850585938	1063.470825195312	-332.740234375	-1252.78857421875	1124.357788085938	-261.2796936035156	-1034.008666992188	1329.562744140625	-259.8917846679688	-1286.581420898438	1267.984130859375	-261.0859985351562	-1248.565551757812	1537.146484375	-270.98828125	-1082.189331054688	1453.86376953125	-264.3450622558594	-1291.16162109375	1397.859985351562	-191.5513458251953	-1262.4052734375	1495.519165039062	-368.6727905273438	-1159.45751953125	1507.794799804688	-441.5928344726562	-1183.398193359375	1382.134765625	-520.4163208007812	-1177.931030273438	1163.441528320312	-542.8062133789062	-1236.739990234375	1150.530517578125	-454.5617980957031	-1085.83544921875	913.6594848632812	-481.0306701660156	-1160.493530273438	896.50439453125	-525.2568359375	-1161.798828125	1047.80712890625	-546.5004272460938	-1047.621459960938	732.1681518554688	-461.4855041503906	-1124.653442382812	807.8412475585938	-521.10595703125	-1059.8955078125	822.2716674804688	-491.4868469238281	-1172.324584960938	1528.847045898438	-95.70083618164062	-1182.346557617188	1456.012573242188	-22.97954177856445	-1202.756103515625	1185.166015625	-2.523001194000244	-1203.669555664062	1158.321411132812	-98.93776702880859	-1062.114990234375	931.8709106445312	-34.55862045288086	-1128.3505859375	914.325439453125	28.47276306152344	-1185.7626953125	1110.34765625	11.94556045532227	-1036.42431640625	745.2945556640625	-46.72406387329102	-1026.534545898438	822.46484375	-18.2669792175293	-1084.076049804688	815.72119140625	28.01950263977051	-1215.324096679688	1727.685180664062	-312.2754821777344	-1008.353088378906	1739.568359375	-242.3013305664062	-1034.760009765625	1741.061767578125	-337.193603515625	-1169.797119140625	1721.367919921875	-174.873046875	-1161.911743164062	963.798095703125	-443.4320678710938	-1128.714233398438	964.5553588867188	-72.49813842773438	-1027.808349609375	997.056396484375	-151.2144775390625	-1044.144409179688	1011.840270996094	-385.60498046875	-1125.564819335938	518.4762573242188	-398.9594421386719	-1145.315185546875	655.2628173828125	-433.5226745605469	-1226.235473632812	42.13829803466797	-401.9411315917969	-1209.946655273438	289.5541687011719	-418.9107971191406	-1007.300231933594	41.20886611938477	-333.9509582519531	-1067.214965820312	49.70635986328125	-317.5808715820312	-1100.914428710938	39.8408088684082	-419.3377075195312	-1297.014404296875	48.74900436401367	-350.0288696289062	-1129.973754882812	527.7194213867188	-118.017578125	-1105.1982421875	795.9046630859375	-74.59349060058594	-1247.962036132812	47.54304122924805	-135.7086029052734	-1158.111572265625	405.5253295898438	-116.9193115234375	-1015.748229980469	45.58185958862305	-171.1027221679688	-1077.665161132812	49.59642791748047	-204.3777160644531	-1099.14404296875	46.13055419921875	-109.4065170288086	-1304.2548828125	48.42016220092773	-182.5863342285156	
